<svg width="40" height="40" viewBox="0 0 40 40" fill="none" xmlns="http://www.w3.org/2000/svg">
<g opacity="0.68" clip-path="url(#clip0_9_134)">
<path d="M40 20C40.0035 22.7074 39.4555 25.3871 38.3894 27.8758L38.323 28.0284C36.5195 32.1313 33.3923 35.511 29.4414 37.6269C25.4906 39.7427 20.9442 40.4727 16.5296 39.7C16.4094 39.6787 16.2895 39.6566 16.1698 39.6337C14.9327 39.3939 13.7214 39.0366 12.5521 38.5669C12.3622 38.4905 12.1736 38.4114 11.9864 38.3296C11.8586 38.2739 11.7308 38.2166 11.6042 38.1574C8.14016 36.5519 5.2074 33.9897 3.15144 30.7726C1.09547 27.5556 0.00203352 23.8179 0 20C0 8.9544 8.9544 0 20 0C31.0455 0 40 8.9544 40 20Z" fill="#A7F1E1"/>
<path opacity="0.2" fill-rule="evenodd" clip-rule="evenodd" d="M8.88953 12.0571C8.88953 12.9549 8.16177 13.6827 7.26396 13.6827C6.36618 13.6827 5.63838 12.9549 5.63838 12.0571C5.63838 11.1594 6.36618 10.4315 7.26396 10.4315C8.16177 10.4315 8.88953 11.1594 8.88953 12.0571ZM16.8314 37.987C16.7217 37.9675 16.6122 37.9474 16.5029 37.9265C16.4316 35.8567 16.1868 31.6086 15.3522 27.1596C14.8956 24.7246 14.2618 22.2286 13.3829 19.9974C13.0818 19.2253 12.7378 18.4706 12.3526 17.7369C11.4644 16.0594 10.3871 14.6471 9.08081 13.6903L9.27313 13.4278C10.3596 14.2241 11.336 15.3421 12.2024 16.7817C12.4622 17.2128 12.7118 17.6727 12.9512 18.1615C13.2078 18.6845 13.4526 19.2397 13.6854 19.8271C13.834 20.201 13.9775 20.5878 14.116 20.9876C14.719 22.7235 15.2314 24.7041 15.6536 26.9294C15.747 27.421 15.836 27.9248 15.9205 28.4406C16.5747 32.4369 16.7719 36.1318 16.8314 37.987ZM12.6833 36.7357C12.5666 36.6849 12.4498 36.6325 12.3342 36.5785C12.2214 35.3521 12.0138 33.8307 11.6346 32.3866C11.4685 31.738 11.2552 31.1024 10.9966 30.4849C10.5638 29.4718 10.0035 28.6107 9.27905 28.0796L9.47137 27.8176C10.2299 28.373 10.815 29.2509 11.2672 30.2779C11.7767 31.4352 12.1165 32.7821 12.3429 34.069C12.5109 35.0246 12.6168 35.948 12.6833 36.7357ZM7.78749 27.6759C8.68529 27.6759 9.41305 26.9482 9.41305 26.0504C9.41305 25.1526 8.68529 24.4248 7.78749 24.4248C6.88971 24.4248 6.16192 25.1526 6.16192 26.0504C6.16192 26.9482 6.88971 27.6759 7.78749 27.6759ZM14.1338 18.4934C14.1338 18.4934 13.3728 16.7325 13.7175 14.7877C14.0622 12.8429 15.3821 11.4507 15.3821 11.4507C15.3821 11.4507 16.143 13.2117 15.7983 15.1565C15.4536 17.1013 14.1338 18.4934 14.1338 18.4934ZM8.31505 19.4042C10.1701 20.0825 12.0341 19.6472 12.0341 19.6472C12.0341 19.6472 10.8906 18.1122 9.03553 17.4338C7.18057 16.7555 5.31656 17.1909 5.31656 17.1909C5.31656 17.1909 6.46009 18.7258 8.31505 19.4042ZM10.609 31.961C10.609 31.961 9.30073 32.2711 8.00049 31.7957C6.70032 31.3202 5.90064 30.2393 5.90064 30.2393C5.90064 30.2393 7.209 29.9291 8.50921 30.4046C9.80937 30.88 10.609 31.961 10.609 31.961Z" fill="#090B10"/>
<path fill-rule="evenodd" clip-rule="evenodd" d="M25.5131 21.3829C26.4944 20.1628 27.0816 18.6123 27.0816 16.9247C27.0816 12.993 23.8943 9.80569 19.9626 9.80569C16.0308 9.80569 12.8435 12.993 12.8435 16.9247C12.8435 19.965 14.7493 22.5601 17.4314 23.5807C17.6946 24.8663 18.0715 26.7576 18.0715 27.0472C18.0715 27.4921 22.2985 29.4943 22.2985 29.4943L26.0805 28.827L27.4153 24.8225C27.4153 24.8225 26.1298 22.8943 25.5131 21.3829Z" fill="#FFB9B9"/>
<path fill-rule="evenodd" clip-rule="evenodd" d="M36.7298 27.3303C36.724 27.3434 36.7182 27.3565 36.7125 27.3695C35.9481 29.0998 34.9194 30.7009 33.6632 32.1153L33.6633 32.1135C32.2401 33.7165 30.5363 35.0681 28.6205 36.0941C25.0131 38.0261 20.8622 38.6925 16.8314 37.987C16.7217 37.9676 16.6122 37.9474 16.5029 37.9265C15.3734 37.7075 14.2673 37.3813 13.1997 36.9524C13.0263 36.8827 12.8542 36.8106 12.6832 36.7358C12.5666 36.685 12.4498 36.6326 12.3342 36.5786C11.2862 36.093 10.2868 35.5091 9.34928 34.8346L9.3492 34.8346C8.73896 34.3958 8.15536 33.9192 7.60205 33.4072C8.09856 32.7308 8.50536 32.3866 8.50536 32.3866H8.50544L8.97976 32.0247L9.95544 31.2797L10.9966 30.485L11.2672 30.278L15.3521 27.1596L15.6536 26.9295L17.7768 25.3087L17.7774 25.3081C17.7774 25.3081 20.0734 29.0494 23.4106 27.937C26.7478 26.8246 26.675 23.6349 26.675 23.6349L36.7902 27.191L36.7298 27.3303Z" fill="#090B10"/>
<path d="M13.7889 11.1892C13.7889 11.1892 16.0492 6.29193 20.3814 7.42206C24.7135 8.55217 27.1622 10.2474 27.3505 11.9426C27.5389 13.6378 27.2563 16.1806 27.2563 16.1806C27.2563 16.1806 26.7854 12.696 23.7718 13.4494C20.7581 14.2029 16.0492 13.6378 16.0492 13.6378L15.2958 20.4186C15.2958 20.4186 14.4482 19.1943 13.5063 19.9478C12.5646 20.7011 10.7752 12.696 13.7889 11.1892Z" fill="#090B10"/>
</g>
<defs>
<clipPath id="clip0_9_134">
<rect width="40" height="40" fill="white"/>
</clipPath>
</defs>
</svg>
