<svg width="136" height="24" viewBox="0 0 136 24" fill="none" xmlns="http://www.w3.org/2000/svg">
<path d="M12.8669 23.2019C13.664 23.2019 14.4414 23.1167 15.1907 22.9547L15.1915 22.9554C15.1915 22.9554 14.3506 23.1646 13.2654 23.2018C11.9592 23.2466 11.007 23.0445 11.007 23.0445C11.6117 23.148 12.2331 23.2019 12.8669 23.2019Z" fill="#B1C1E1"/>
<path d="M10.2256 17.6226C10.3666 20.8886 10.9954 23.0055 11.007 23.0445C5.77899 22.1495 1.7973 17.5457 1.7973 12.0009C1.7973 5.81484 6.75334 0.800018 12.8669 0.800018C18.9805 0.800018 23.9365 5.81484 23.9365 12.0009C23.9365 17.3805 20.1886 21.8743 15.1907 22.9547C15.163 22.9292 14.4016 22.2259 13.7326 21.027C14.1409 20.7379 15.9883 19.3958 17.084 18.033L17.0824 18.0369C17.0824 18.0369 18.6382 18.1382 19.5262 17.8121C20.3392 17.5135 21.0479 16.5831 21.4421 15.9729C21.5949 16.0052 21.849 16.0272 22.0954 15.9059C22.4837 15.7149 22.7058 15.2405 22.7058 15.2405C22.7058 15.2405 22.2985 15.0758 21.9101 15.2668C21.7912 15.3253 21.6879 15.4104 21.6018 15.5003C21.6409 15.3799 21.668 15.2425 21.6632 15.0983C21.6482 14.642 21.3209 14.2904 21.3209 14.2904C21.3209 14.2904 21.0178 14.6787 21.0328 15.1349C21.0442 15.4789 21.2329 15.7637 21.3251 15.8828C20.8329 16.3603 20.011 17.0468 19.2547 17.1626C18.6759 17.2513 17.8225 17.0604 17.7321 17.0396C17.955 16.5953 18.0863 16.1732 18.2181 15.7498C18.3964 15.1769 18.5754 14.6015 18.9831 13.9654C19.0118 13.9206 19.0419 13.8752 19.073 13.8294C19.2274 13.8743 19.5379 13.9368 19.8411 13.8313C20.2678 13.6827 20.5181 13.2579 20.5181 13.2579C20.5181 13.2579 20.0768 13.0738 19.6501 13.2223C19.5777 13.2475 19.5104 13.2807 19.4484 13.3184C19.8195 12.8444 20.2449 12.371 20.565 12.0287C20.7743 12.007 21.1579 11.9332 21.4581 11.6833C21.8936 11.3207 21.9887 10.7247 21.9887 10.7247C21.9887 10.7247 21.564 10.719 21.1703 10.9272C21.2436 10.4335 21.0296 9.98603 21.0296 9.98603C21.0296 9.98603 20.5244 10.3339 20.3732 10.8838C20.2639 11.2813 20.3695 11.6756 20.4364 11.8634C19.7805 12.2479 18.7604 12.9027 18.1685 13.5658C17.6884 14.1036 17.488 14.6482 17.2874 15.193C17.0874 15.7365 16.8873 16.2802 16.4093 16.8176C15.4517 17.8942 13.4831 18.8325 12.9484 19.0751C12.8338 18.622 12.7562 18.1365 12.7341 17.6226C12.6858 15.6359 13.6523 14.2891 14.6406 12.9807C15.8728 11.5841 18.0275 9.65331 19.1112 8.70402C19.3295 8.76585 19.709 8.83379 20.084 8.71203C20.6586 8.52552 21.005 7.96461 21.005 7.96461C21.005 7.96461 20.4201 7.70602 19.8456 7.89258C19.7769 7.91488 19.7114 7.94254 19.6494 7.97395C19.6837 7.90668 19.7137 7.83528 19.7376 7.76002C19.9219 7.17872 19.6664 6.58675 19.6664 6.58675C19.6664 6.58675 19.1121 6.93735 18.9277 7.51865C18.7919 7.94709 18.895 8.38138 18.9586 8.58013C18.2257 8.99025 17.1525 9.60467 16.4046 10.0928C16.5988 9.53146 16.7046 8.91998 16.6748 8.22965C16.5425 5.16327 15.0962 3.41455 14.2194 2.62916C14.2721 2.46661 14.3279 2.20739 14.2674 1.94686C14.1684 1.51976 13.7944 1.25087 13.7944 1.25087C13.7944 1.25087 13.6258 1.5858 13.6581 1.96032C13.3371 1.69277 12.905 1.68968 12.905 1.68968C12.905 1.68968 12.9703 2.16037 13.2936 2.45272C13.5517 2.68609 13.8961 2.73524 14.0245 2.74557C14.6332 3.66562 15.5969 5.56938 15.435 8.22965C15.3594 9.47304 14.6374 10.4173 13.7535 11.3397C13.714 11.1398 13.6511 10.9119 13.551 10.693C13.4483 10.4683 13.0668 10.1708 12.6072 9.81239C11.8381 9.21264 10.8505 8.44246 10.5854 7.5582C10.321 6.67667 10.5103 5.68501 10.6901 5.06398C10.9057 5.09722 11.3226 5.12446 11.7031 4.93579C12.2464 4.66641 12.5097 4.05905 12.5097 4.05905C12.5097 4.05905 11.8923 3.88839 11.349 4.15776C11.1513 4.25581 10.9906 4.39867 10.8662 4.54071C10.8892 4.48212 10.9031 4.45027 10.9031 4.45027C10.9031 4.45027 10.826 4.53533 10.7107 4.68613C10.7813 4.46469 10.8407 4.16001 10.7834 3.84847C10.6729 3.24663 10.1692 2.84714 10.1692 2.84714C10.1692 2.84714 9.8446 3.42337 9.95517 4.0252C10.0414 4.49488 10.3672 4.84133 10.5061 4.97082C10.1067 5.5615 9.56885 6.57777 9.71162 7.61185C9.73397 7.77385 9.76694 7.92737 9.8089 8.07333C9.77521 8.03224 9.73757 7.99266 9.69556 7.95593C9.36853 7.67006 8.90044 7.66494 8.90044 7.66494C8.90044 7.66494 8.96237 8.12322 9.28927 8.40909C9.57336 8.65753 9.96405 8.69397 10.0616 8.69925C10.3841 9.31133 10.8616 9.77662 11.3009 10.2047C11.7601 10.6522 12.1776 11.059 12.333 11.5504C12.4397 11.888 12.4456 12.3276 12.4251 12.6806C11.7737 13.3582 11.1568 14.0904 10.742 14.9733C10.5926 14.8957 10.0575 14.5695 9.0826 13.4734C8.62293 12.9566 8.40877 12.4342 8.21461 11.9115C8.35656 11.8173 8.61404 11.6124 8.73791 11.3007C8.91408 10.8573 8.75341 10.3657 8.75341 10.3657C8.75341 10.3657 8.30708 10.593 8.13085 11.0363C8.07352 11.1806 8.05186 11.33 8.04873 11.4659C7.8688 10.9982 7.65354 10.5315 7.2412 10.0697C6.71227 9.47714 5.85666 8.89095 5.19046 8.48167C5.28423 8.3491 5.40329 8.13439 5.42056 7.88147C5.44957 7.45578 5.17935 7.08303 5.17935 7.08303C5.17935 7.08303 4.86208 7.4004 4.83305 7.82603C4.82071 8.00692 4.86243 8.17826 4.91447 8.31549L4.8731 8.29115C4.7313 8.13462 4.53013 7.96252 4.27324 7.86558C3.72011 7.65699 3.11816 7.87576 3.11816 7.87576C3.11816 7.87576 3.413 8.43283 3.96613 8.64162C4.39557 8.80362 4.85444 8.70792 5.03818 8.65703C5.55664 9.1462 6.1977 9.80543 6.57409 10.3926C7.0023 11.0606 7.14409 11.688 7.2854 12.3133C7.38965 12.7746 7.49364 13.2347 7.71218 13.7092L7.70633 13.7037C7.70633 13.7037 6.74483 13.9326 6.10436 13.8344C5.39766 13.7262 4.63619 13.1419 4.11437 12.6622C4.02941 12.4511 3.85177 12.0958 3.55562 11.8825C3.11371 11.5644 2.57532 11.683 2.57532 11.683C2.57532 11.683 2.75335 12.3174 3.19526 12.6355C3.47695 12.8383 3.79787 12.8636 3.99353 12.8553C4.27089 13.2527 4.64248 13.7143 5.06962 14.0649C5.01384 14.0575 4.95356 14.0564 4.88915 14.064C4.49382 14.111 4.09238 14.4732 4.09238 14.4732C4.09238 14.4732 4.33185 14.7591 4.72715 14.712C5.03629 14.6752 5.34917 14.4457 5.4709 14.3474C5.58479 14.4141 5.70141 14.4705 5.82015 14.5142C6.68322 14.8313 8.14891 14.7624 8.35399 14.7509C9.17582 15.9224 9.93737 16.7762 10.2251 17.0875C10.2177 17.2607 10.2177 17.439 10.2256 17.6226Z" fill="#B1C1E1"/>
<path fill-rule="evenodd" clip-rule="evenodd" d="M30.7236 17.7671C31.5431 18.2554 32.4601 18.4996 33.4747 18.4996C34.5154 18.4996 35.4454 18.2554 36.2649 17.7671C37.0973 17.2652 37.7477 16.5869 38.216 15.7323C38.6973 14.8641 38.938 13.8874 38.938 12.8022C38.938 11.7169 38.6973 10.747 38.216 9.89241C37.7477 9.0378 37.0973 8.36631 36.2649 7.87796C35.4454 7.37607 34.5154 7.12508 33.4747 7.12508C32.5382 7.12508 31.6927 7.33537 30.9382 7.75587C30.1968 8.17637 29.618 8.73938 29.2017 9.44476V3.09617C29.2017 2.90626 29.1497 2.75704 29.0456 2.64852C28.9415 2.53999 28.7985 2.48573 28.6164 2.48573C28.4473 2.48573 28.3042 2.53999 28.1871 2.64852C28.083 2.75704 28.031 2.90626 28.031 3.09617V12.9243C28.0571 13.9824 28.3042 14.9319 28.7725 15.773C29.2537 16.6141 29.9041 17.2787 30.7236 17.7671ZM35.66 16.77C35.0227 17.1635 34.2942 17.3601 33.4747 17.3601C32.6682 17.3601 31.9398 17.1635 31.2894 16.77C30.639 16.3631 30.1253 15.8205 29.748 15.1422C29.3838 14.4504 29.2017 13.6703 29.2017 12.8022C29.2017 11.934 29.3838 11.1608 29.748 10.4825C30.1253 9.80421 30.639 9.26843 31.2894 8.87501C31.9398 8.46805 32.6682 8.26457 33.4747 8.26457C34.2942 8.26457 35.0227 8.46805 35.66 8.87501C36.3104 9.26843 36.8242 9.80421 37.2014 10.4825C37.5787 11.1608 37.7673 11.934 37.7673 12.8022C37.7673 13.6703 37.5787 14.4504 37.2014 15.1422C36.8242 15.8205 36.3104 16.3631 35.66 16.77Z" fill="#B1C1E1"/>
<path d="M43.0351 11.5813V17.7671C43.0351 17.9434 42.9831 18.0927 42.879 18.2148C42.7749 18.3233 42.6319 18.3775 42.4497 18.3775C42.2806 18.3775 42.1375 18.3233 42.0205 18.2148C41.9164 18.0927 41.8644 17.9434 41.8644 17.7671V7.85761C41.8644 7.66767 41.9164 7.5185 42.0205 7.40995C42.1375 7.30141 42.2806 7.24717 42.4497 7.24717C42.6319 7.24717 42.7749 7.30141 42.879 7.40995C42.9831 7.5185 43.0351 7.66767 43.0351 7.85761V9.11395C43.3976 8.51572 43.8529 8.04268 44.4009 7.69483C44.9992 7.31502 45.6626 7.12508 46.391 7.12508C46.8854 7.12508 47.2691 7.18613 47.5422 7.30821C47.8154 7.4303 47.9195 7.64732 47.8544 7.95935C47.8154 8.16283 47.7244 8.28492 47.5812 8.32562C47.4381 8.36631 47.2625 8.37312 47.0544 8.34596C46.8593 8.30527 46.6382 8.28492 46.391 8.28492C45.7406 8.28492 45.1618 8.42736 44.6545 8.71223C44.1472 8.9971 43.7505 9.39052 43.4643 9.89241C43.1782 10.3808 43.0351 10.9437 43.0351 11.5813Z" fill="#B1C1E1"/>
<path d="M50.966 18.2148C51.0831 18.3233 51.2262 18.3775 51.3953 18.3775C51.5774 18.3775 51.7205 18.3233 51.8245 18.2148C51.9286 18.0927 51.9806 17.9434 51.9806 17.7671V7.85761C51.9806 7.66767 51.9286 7.5185 51.8245 7.40995C51.7205 7.30141 51.5774 7.24717 51.3953 7.24717C51.2262 7.24717 51.0831 7.30141 50.966 7.40995C50.862 7.5185 50.8099 7.66767 50.8099 7.85761V17.7671C50.8099 17.9434 50.862 18.0927 50.966 18.2148Z" fill="#B1C1E1"/>
<path d="M50.7319 4.64262C50.914 4.81897 51.1287 4.90715 51.3758 4.90715C51.636 4.90715 51.8506 4.81897 52.0197 4.64262C52.2018 4.45271 52.2928 4.2221 52.2928 3.95079C52.2928 3.63879 52.1953 3.40818 52.0001 3.25896C51.818 3.09617 51.6165 3.01478 51.3953 3.01478C51.1612 3.01478 50.9465 3.09617 50.7514 3.25896C50.5693 3.40818 50.4783 3.63879 50.4783 3.95079C50.4783 4.2221 50.5628 4.45271 50.7319 4.64262Z" fill="#B1C1E1"/>
<path fill-rule="evenodd" clip-rule="evenodd" d="M57.9565 17.7671C58.789 18.2554 59.7255 18.4996 60.7661 18.4996C61.7157 18.4996 62.5612 18.2893 63.3026 17.8688C64.0329 17.4413 64.6117 16.869 65.0392 16.1519V17.7671C65.0392 17.9434 65.0912 18.0927 65.1953 18.2148C65.3123 18.3233 65.4554 18.3775 65.6245 18.3775C65.8066 18.3775 65.9497 18.3233 66.0538 18.2148C66.1579 18.0927 66.2099 17.9434 66.2099 17.7671V12.8225C66.2099 11.7373 65.9692 10.7674 65.4879 9.91276C65.0196 9.04461 64.3758 8.36631 63.5563 7.87796C62.7368 7.37607 61.8068 7.12508 60.7661 7.12508C59.7255 7.12508 58.789 7.37607 57.9565 7.87796C57.137 8.36631 56.4866 9.04461 56.0053 9.91276C55.5371 10.7674 55.3029 11.7373 55.3029 12.8225C55.3029 13.8942 55.5371 14.8641 56.0053 15.7323C56.4866 16.5869 57.137 17.2652 57.9565 17.7671ZM62.9514 16.77C62.3141 17.1635 61.5856 17.3601 60.7661 17.3601C59.9596 17.3601 59.2313 17.1635 58.5809 16.77C57.9305 16.3631 57.4167 15.8205 57.0394 15.1422C56.6622 14.4504 56.4736 13.6771 56.4736 12.8225C56.4736 11.9544 56.6622 11.1811 57.0394 10.5029C57.4167 9.81102 57.9305 9.26843 58.5809 8.87501C59.2313 8.46805 59.9596 8.26457 60.7661 8.26457C61.5856 8.26457 62.3141 8.46805 62.9514 8.87501C63.6018 9.26843 64.1091 9.81102 64.4733 10.5029C64.8506 11.1811 65.0392 11.9544 65.0392 12.8225C65.0392 13.6771 64.8506 14.4504 64.4733 15.1422C64.1091 15.8205 63.6018 16.3631 62.9514 16.77Z" fill="#B1C1E1"/>
<path d="M77.9309 18.2148C78.048 18.3233 78.1906 18.3775 78.3602 18.3775C78.529 18.3775 78.6656 18.3233 78.7699 18.2148C78.887 18.0927 78.9455 17.9434 78.9455 17.7671V12.2935C78.9455 11.1675 78.7309 10.2248 78.3017 9.46511C77.8724 8.69188 77.2803 8.1086 76.5261 7.71518C75.7847 7.30822 74.9457 7.10473 74.0091 7.10473C73.1761 7.10473 72.4152 7.30141 71.7263 7.69483C71.1651 8.00382 70.6903 8.4116 70.3016 8.91816V7.85761C70.3016 7.66767 70.2496 7.5185 70.1456 7.40995C70.0415 7.30141 69.8984 7.24717 69.7163 7.24717C69.5471 7.24717 69.4041 7.30141 69.287 7.40995C69.183 7.5185 69.131 7.66767 69.131 7.85761V17.7671C69.131 17.9434 69.183 18.0927 69.287 18.2148C69.4041 18.3233 69.5471 18.3775 69.7163 18.3775C69.8984 18.3775 70.0415 18.3233 70.1456 18.2148C70.2496 18.0927 70.3016 17.9434 70.3016 17.7671V11.5406C70.3016 10.9302 70.4642 10.3808 70.7894 9.89241C71.1146 9.40406 71.5567 9.02426 72.1165 8.75292C72.6756 8.46805 73.3067 8.32562 74.0091 8.32562C74.7243 8.32562 75.3614 8.47486 75.9212 8.77327C76.4931 9.05814 76.9419 9.49226 77.2675 10.0755C77.6052 10.6588 77.7748 11.3982 77.7748 12.2935V17.7671C77.7748 17.9434 77.8266 18.0927 77.9309 18.2148Z" fill="#B1C1E1"/>
<path d="M83.079 17.9502C83.4692 18.2351 83.9112 18.3775 84.4057 18.3775H84.796C84.9776 18.3775 85.1209 18.3233 85.2252 18.2148C85.3288 18.0927 85.3813 17.9434 85.3813 17.7671C85.3813 17.5772 85.3356 17.428 85.2448 17.3194C85.1532 17.2109 85.0361 17.1567 84.8935 17.1567H84.4057C84.002 17.1567 83.6703 16.96 83.4107 16.5666C83.163 16.1596 83.0399 15.6441 83.0399 15.0201V3.09617C83.0399 2.90626 82.9874 2.75704 82.8839 2.64852C82.7795 2.53999 82.6362 2.48573 82.4546 2.48573C82.285 2.48573 82.1424 2.53999 82.0253 2.64852C81.921 2.75704 81.8693 2.90626 81.8693 3.09617V15.0201C81.8693 15.6848 81.9728 16.2682 82.1814 16.77C82.4021 17.2719 82.7015 17.6654 83.079 17.9502Z" fill="#B1C1E1"/>
<path fill-rule="evenodd" clip-rule="evenodd" d="M88.8979 17.7671C89.7046 18.2419 90.6217 18.4793 91.649 18.4793C92.2606 18.4793 92.8978 18.3504 93.5612 18.0927C94.2381 17.835 94.7844 17.5094 95.2001 17.116C95.3307 16.9939 95.3892 16.8582 95.3757 16.709C95.3757 16.5598 95.3044 16.4241 95.1611 16.302C95.0575 16.2071 94.927 16.1664 94.7709 16.18C94.6283 16.18 94.5045 16.2342 94.4001 16.3427C94.1015 16.6411 93.6917 16.8853 93.1709 17.0753C92.6636 17.2516 92.1563 17.3398 91.649 17.3398C90.843 17.3398 90.1271 17.1498 89.5028 16.77C88.8784 16.3766 88.3906 15.8408 88.0394 15.1626C87.7376 14.5797 87.5655 13.9218 87.523 13.1888H95.7074C95.877 13.1888 96.0136 13.1413 96.1172 13.0464C96.2215 12.9378 96.2732 12.7954 96.2732 12.619C96.2732 11.5474 96.0654 10.6046 95.6489 9.79067C95.2331 8.96321 94.6538 8.31881 93.9124 7.85761C93.1709 7.3828 92.3192 7.14543 91.3564 7.14543C90.3808 7.14543 89.5163 7.38961 88.7613 7.87796C88.0071 8.36631 87.415 9.0378 86.9858 9.89241C86.5565 10.7335 86.3419 11.7102 86.3419 12.8225C86.3419 13.9213 86.57 14.898 87.0248 15.7526C87.4803 16.6073 88.1047 17.2787 88.8979 17.7671ZM87.5472 12.1307C87.6107 11.5161 87.7619 10.9599 88.0004 10.4622C88.3388 9.78386 88.7943 9.25482 89.3662 8.87501C89.9515 8.48159 90.6149 8.28492 91.3564 8.28492C92.1368 8.28492 92.8137 8.48159 93.3855 8.87501C93.9709 9.25482 94.4197 9.78386 94.7318 10.4622C94.9623 10.9629 95.1008 11.5191 95.1469 12.1307H87.5472Z" fill="#B1C1E1"/>
<path d="M100.465 18.2758C100.57 18.3437 100.687 18.3775 100.816 18.3775C100.934 18.3775 101.038 18.3504 101.129 18.2961C101.233 18.2283 101.311 18.1266 101.363 17.9909L103.931 9.37437L106.592 17.9909C106.618 18.113 106.683 18.2079 106.787 18.2758C106.891 18.3437 107.008 18.3775 107.138 18.3775C107.281 18.3775 107.399 18.3437 107.489 18.2758C107.594 18.2079 107.665 18.113 107.704 17.9909L110.845 8.12214C110.937 7.91866 110.937 7.72198 110.845 7.53204C110.767 7.3421 110.611 7.24717 110.377 7.24717C110.117 7.24717 109.935 7.36926 109.831 7.61344L107.122 16.1252L104.563 7.73552C104.511 7.58628 104.433 7.471 104.328 7.38961C104.238 7.29468 104.121 7.24717 103.977 7.24717C103.835 7.24717 103.711 7.29468 103.607 7.38961C103.503 7.471 103.431 7.58628 103.392 7.73552L100.861 16.2759L98.1043 7.61344C98.0526 7.49135 97.9745 7.40315 97.8702 7.34891C97.7666 7.28106 97.6623 7.24717 97.558 7.24717C97.3629 7.24717 97.2263 7.32175 97.1483 7.471C97.0702 7.60663 97.0575 7.82372 97.1092 8.12214L100.27 17.9909C100.309 18.113 100.374 18.2079 100.465 18.2758Z" fill="#B1C1E1"/>
<path d="M114.553 23.139C114.658 23.1797 114.748 23.2 114.826 23.2C115.009 23.2 115.158 23.0779 115.275 22.8338L121.831 8.0204C121.987 7.66767 121.89 7.41676 121.538 7.26752C121.213 7.13189 120.973 7.23363 120.816 7.57274L116.827 16.5861L112.875 7.55239C112.797 7.37607 112.693 7.26752 112.563 7.22682C112.433 7.18613 112.283 7.20647 112.114 7.28787C111.945 7.36926 111.841 7.47781 111.802 7.61344C111.763 7.74906 111.783 7.90512 111.861 8.08144L116.134 17.8485C116.156 17.8997 116.181 17.9452 116.208 17.985L114.261 22.3861C114.104 22.7388 114.202 22.9897 114.553 23.139Z" fill="#B1C1E1"/>
<path d="M132.654 18.2148C132.771 18.3233 132.914 18.3775 133.083 18.3775C133.253 18.3775 133.389 18.3233 133.493 18.2148C133.61 18.0927 133.669 17.9434 133.669 17.7671V12.2935C133.669 11.1675 133.454 10.2248 133.025 9.46511C132.595 8.69188 132.004 8.1086 131.249 7.71518C130.508 7.30822 129.669 7.10473 128.732 7.10473C127.9 7.10473 127.139 7.30141 126.449 7.69483C125.889 8.00383 125.414 8.41163 125.025 8.91822V7.85761C125.025 7.66767 124.973 7.5185 124.869 7.40995C124.765 7.30141 124.622 7.24717 124.44 7.24717C124.271 7.24717 124.127 7.30141 124.01 7.40995C123.907 7.5185 123.854 7.66767 123.854 7.85761V17.7671C123.854 17.9434 123.907 18.0927 124.01 18.2148C124.127 18.3233 124.271 18.3775 124.44 18.3775C124.622 18.3775 124.765 18.3233 124.869 18.2148C124.973 18.0927 125.025 17.9434 125.025 17.7671V11.5406C125.025 10.9302 125.188 10.3808 125.513 9.89241C125.838 9.40406 126.28 9.02426 126.84 8.75292C127.399 8.46805 128.03 8.32562 128.732 8.32562C129.448 8.32562 130.085 8.47486 130.644 8.77327C131.217 9.05814 131.666 9.49226 131.991 10.0755C132.329 10.6588 132.498 11.3982 132.498 12.2935V17.7671C132.498 17.9434 132.55 18.0927 132.654 18.2148Z" fill="#B1C1E1"/>
</svg>
