<svg width="136" height="24" viewBox="0 0 136 24" fill="none" xmlns="http://www.w3.org/2000/svg">
<path d="M12.8669 23.2019C13.664 23.2019 14.4414 23.1167 15.1907 22.9547L15.1915 22.9554C15.1915 22.9554 14.3506 23.1646 13.2654 23.2018C11.9591 23.2466 11.007 23.0445 11.007 23.0445C11.6117 23.148 12.2331 23.2019 12.8669 23.2019Z" fill="white" fill-opacity="0.68"/>
<path d="M10.2256 17.6226C10.3665 20.8886 10.9953 23.0055 11.007 23.0445C5.77896 22.1495 1.79727 17.5457 1.79727 12.0009C1.79727 5.81484 6.75331 0.800018 12.8669 0.800018C18.9805 0.800018 23.9365 5.81484 23.9365 12.0009C23.9365 17.3805 20.1886 21.8743 15.1907 22.9547C15.1629 22.9292 14.4015 22.2259 13.7326 21.027C14.1408 20.7379 15.9882 19.3958 17.084 18.033L17.0824 18.0369C17.0824 18.0369 18.6382 18.1382 19.5262 17.8121C20.3391 17.5135 21.0478 16.5831 21.4421 15.9729C21.5949 16.0052 21.8489 16.0272 22.0954 15.9059C22.4836 15.7149 22.7058 15.2405 22.7058 15.2405C22.7058 15.2405 22.2985 15.0758 21.9101 15.2668C21.7912 15.3253 21.6879 15.4104 21.6017 15.5003C21.6409 15.3799 21.6679 15.2425 21.6632 15.0983C21.6481 14.642 21.3209 14.2904 21.3209 14.2904C21.3209 14.2904 21.0178 14.6787 21.0328 15.1349C21.0441 15.4789 21.2329 15.7637 21.3251 15.8828C20.8328 16.3603 20.0109 17.0468 19.2547 17.1626C18.6758 17.2513 17.8225 17.0604 17.7321 17.0396C17.955 16.5953 18.0863 16.1732 18.218 15.7498C18.3963 15.1769 18.5754 14.6015 18.9831 13.9654C19.0118 13.9206 19.0418 13.8752 19.073 13.8294C19.2274 13.8743 19.5379 13.9368 19.8411 13.8313C20.2677 13.6827 20.5181 13.2579 20.5181 13.2579C20.5181 13.2579 20.0768 13.0738 19.6501 13.2223C19.5777 13.2475 19.5103 13.2807 19.4484 13.3184C19.8194 12.8444 20.2449 12.371 20.5649 12.0287C20.7743 12.007 21.1579 11.9332 21.4581 11.6833C21.8936 11.3207 21.9886 10.7247 21.9886 10.7247C21.9886 10.7247 21.564 10.719 21.1703 10.9272C21.2436 10.4335 21.0295 9.98603 21.0295 9.98603C21.0295 9.98603 20.5243 10.3339 20.3732 10.8838C20.2638 11.2813 20.3695 11.6756 20.4364 11.8634C19.7805 12.2479 18.7603 12.9027 18.1684 13.5658C17.6884 14.1036 17.4879 14.6482 17.2874 15.193C17.0874 15.7365 16.8872 16.2802 16.4093 16.8176C15.4516 17.8942 13.483 18.8325 12.9484 19.0751C12.8337 18.622 12.7562 18.1365 12.734 17.6226C12.6858 15.6359 13.6522 14.2891 14.6406 12.9807C15.8727 11.5841 18.0275 9.65331 19.1111 8.70402C19.3294 8.76585 19.709 8.83379 20.084 8.71203C20.6586 8.52552 21.005 7.96461 21.005 7.96461C21.005 7.96461 20.42 7.70602 19.8455 7.89258C19.7768 7.91488 19.7114 7.94254 19.6494 7.97395C19.6836 7.90668 19.7137 7.83528 19.7376 7.76002C19.9219 7.17872 19.6664 6.58675 19.6664 6.58675C19.6664 6.58675 19.112 6.93735 18.9277 7.51865C18.7918 7.94709 18.8949 8.38138 18.9585 8.58013C18.2257 8.99025 17.1525 9.60467 16.4046 10.0928C16.5987 9.53146 16.7046 8.91998 16.6748 8.22965C16.5425 5.16327 15.0961 3.41455 14.2193 2.62916C14.272 2.46661 14.3278 2.20739 14.2674 1.94686C14.1683 1.51976 13.7944 1.25087 13.7944 1.25087C13.7944 1.25087 13.6258 1.5858 13.6581 1.96032C13.3371 1.69277 12.9049 1.68968 12.9049 1.68968C12.9049 1.68968 12.9703 2.16037 13.2936 2.45272C13.5517 2.68609 13.8961 2.73524 14.0245 2.74557C14.6332 3.66562 15.5969 5.56938 15.435 8.22965C15.3594 9.47304 14.6374 10.4173 13.7535 11.3397C13.714 11.1398 13.651 10.9119 13.551 10.693C13.4483 10.4683 13.0667 10.1708 12.6072 9.81239C11.8381 9.21264 10.8505 8.44246 10.5853 7.5582C10.321 6.67667 10.5103 5.68501 10.69 5.06398C10.9056 5.09722 11.3226 5.12446 11.7031 4.93579C12.2463 4.66641 12.5097 4.05905 12.5097 4.05905C12.5097 4.05905 11.8922 3.88839 11.349 4.15776C11.1512 4.25581 10.9906 4.39867 10.8662 4.54071C10.8891 4.48212 10.9031 4.45027 10.9031 4.45027C10.9031 4.45027 10.826 4.53533 10.7107 4.68613C10.7813 4.46469 10.8407 4.16001 10.7834 3.84847C10.6728 3.24663 10.1691 2.84714 10.1691 2.84714C10.1691 2.84714 9.84457 3.42337 9.95514 4.0252C10.0414 4.49488 10.3672 4.84133 10.5061 4.97082C10.1067 5.5615 9.56882 6.57777 9.71159 7.61185C9.73394 7.77385 9.76691 7.92737 9.80887 8.07333C9.77518 8.03224 9.73754 7.99266 9.69553 7.95593C9.3685 7.67006 8.90041 7.66494 8.90041 7.66494C8.90041 7.66494 8.96234 8.12322 9.28924 8.40909C9.57333 8.65753 9.96402 8.69397 10.0616 8.69925C10.3841 9.31133 10.8616 9.77662 11.3009 10.2047C11.76 10.6522 12.1775 11.059 12.3329 11.5504C12.4397 11.888 12.4455 12.3276 12.4251 12.6806C11.7737 13.3582 11.1568 14.0904 10.7419 14.9733C10.5926 14.8957 10.0575 14.5695 9.08257 13.4734C8.6229 12.9566 8.40874 12.4342 8.21458 11.9115C8.35653 11.8173 8.61401 11.6124 8.73788 11.3007C8.91405 10.8573 8.75338 10.3657 8.75338 10.3657C8.75338 10.3657 8.30705 10.593 8.13082 11.0363C8.07349 11.1806 8.05183 11.33 8.0487 11.4659C7.86877 10.9982 7.65351 10.5315 7.24117 10.0697C6.71224 9.47714 5.85663 8.89095 5.19043 8.48167C5.28419 8.3491 5.40326 8.13439 5.42053 7.88147C5.44953 7.45578 5.17932 7.08303 5.17932 7.08303C5.17932 7.08303 4.86205 7.4004 4.83302 7.82603C4.82068 8.00692 4.8624 8.17826 4.91444 8.31549L4.87307 8.29115C4.73127 8.13462 4.5301 7.96252 4.27321 7.86558C3.72008 7.65699 3.11813 7.87576 3.11813 7.87576C3.11813 7.87576 3.41297 8.43283 3.9661 8.64162C4.39554 8.80362 4.85441 8.70792 5.03815 8.65703C5.55661 9.1462 6.19767 9.80543 6.57406 10.3926C7.00227 11.0606 7.14406 11.688 7.28537 12.3133C7.38962 12.7746 7.49361 13.2347 7.71215 13.7092L7.7063 13.7037C7.7063 13.7037 6.7448 13.9326 6.10433 13.8344C5.39763 13.7262 4.63616 13.1419 4.11434 12.6622C4.02938 12.4511 3.85174 12.0958 3.55559 11.8825C3.11368 11.5644 2.57529 11.683 2.57529 11.683C2.57529 11.683 2.75332 12.3174 3.19523 12.6355C3.47692 12.8383 3.79784 12.8636 3.9935 12.8553C4.27086 13.2527 4.64245 13.7143 5.06959 14.0649C5.01381 14.0575 4.95353 14.0564 4.88912 14.064C4.49379 14.111 4.09235 14.4732 4.09235 14.4732C4.09235 14.4732 4.33182 14.7591 4.72712 14.712C5.03626 14.6752 5.34914 14.4457 5.47087 14.3474C5.58476 14.4141 5.70138 14.4705 5.82012 14.5142C6.68319 14.8313 8.14888 14.7624 8.35396 14.7509C9.17579 15.9224 9.93734 16.7762 10.2251 17.0875C10.2177 17.2607 10.2177 17.439 10.2256 17.6226Z" fill="white" fill-opacity="0.68"/>
<path fill-rule="evenodd" clip-rule="evenodd" d="M30.7236 17.7671C31.5431 18.2554 32.4601 18.4996 33.4747 18.4996C34.5153 18.4996 35.4454 18.2554 36.2648 17.7671C37.0973 17.2652 37.7477 16.5869 38.216 15.7323C38.6973 14.8641 38.9379 13.8874 38.9379 12.8022C38.9379 11.7169 38.6973 10.747 38.216 9.89241C37.7477 9.0378 37.0973 8.36631 36.2648 7.87796C35.4454 7.37607 34.5153 7.12508 33.4747 7.12508C32.5381 7.12508 31.6926 7.33537 30.9382 7.75587C30.1968 8.17637 29.618 8.73938 29.2017 9.44476V3.09617C29.2017 2.90626 29.1497 2.75704 29.0456 2.64852C28.9415 2.53999 28.7985 2.48573 28.6163 2.48573C28.4473 2.48573 28.3042 2.53999 28.1871 2.64852C28.083 2.75704 28.031 2.90626 28.031 3.09617V12.9243C28.057 13.9824 28.3041 14.9319 28.7724 15.773C29.2537 16.6141 29.9041 17.2787 30.7236 17.7671ZM35.66 16.77C35.0226 17.1635 34.2942 17.3601 33.4747 17.3601C32.6682 17.3601 31.9398 17.1635 31.2894 16.77C30.639 16.3631 30.1252 15.8205 29.748 15.1422C29.3838 14.4504 29.2017 13.6703 29.2017 12.8022C29.2017 11.934 29.3838 11.1608 29.748 10.4825C30.1252 9.80421 30.639 9.26843 31.2894 8.87501C31.9398 8.46805 32.6682 8.26457 33.4747 8.26457C34.2942 8.26457 35.0226 8.46805 35.66 8.87501C36.3104 9.26843 36.8241 9.80421 37.2014 10.4825C37.5786 11.1608 37.7672 11.934 37.7672 12.8022C37.7672 13.6703 37.5786 14.4504 37.2014 15.1422C36.8241 15.8205 36.3104 16.3631 35.66 16.77Z" fill="white" fill-opacity="0.68"/>
<path d="M43.035 11.5813V17.7671C43.035 17.9434 42.983 18.0927 42.8789 18.2148C42.7749 18.3233 42.6318 18.3775 42.4497 18.3775C42.2806 18.3775 42.1375 18.3233 42.0204 18.2148C41.9164 18.0927 41.8643 17.9434 41.8643 17.7671V7.85761C41.8643 7.66767 41.9164 7.5185 42.0204 7.40995C42.1375 7.30141 42.2806 7.24717 42.4497 7.24717C42.6318 7.24717 42.7749 7.30141 42.8789 7.40995C42.983 7.5185 43.035 7.66767 43.035 7.85761V9.11395C43.3976 8.51572 43.8528 8.04268 44.4008 7.69483C44.9992 7.31502 45.6626 7.12508 46.391 7.12508C46.8853 7.12508 47.269 7.18613 47.5422 7.30821C47.8154 7.4303 47.9194 7.64732 47.8544 7.95935C47.8154 8.16283 47.7243 8.28492 47.5812 8.32562C47.4381 8.36631 47.2625 8.37312 47.0544 8.34596C46.8593 8.30527 46.6381 8.28492 46.391 8.28492C45.7406 8.28492 45.1618 8.42736 44.6545 8.71223C44.1472 8.9971 43.7504 9.39052 43.4643 9.89241C43.1781 10.3808 43.035 10.9437 43.035 11.5813Z" fill="white" fill-opacity="0.68"/>
<path d="M50.966 18.2148C51.0831 18.3233 51.2262 18.3775 51.3953 18.3775C51.5774 18.3775 51.7204 18.3233 51.8245 18.2148C51.9286 18.0927 51.9806 17.9434 51.9806 17.7671V7.85761C51.9806 7.66767 51.9286 7.5185 51.8245 7.40995C51.7204 7.30141 51.5774 7.24717 51.3953 7.24717C51.2262 7.24717 51.0831 7.30141 50.966 7.40995C50.8619 7.5185 50.8099 7.66767 50.8099 7.85761V17.7671C50.8099 17.9434 50.8619 18.0927 50.966 18.2148Z" fill="white" fill-opacity="0.68"/>
<path d="M50.7319 4.64262C50.914 4.81897 51.1286 4.90715 51.3757 4.90715C51.6359 4.90715 51.8506 4.81897 52.0196 4.64262C52.2018 4.45271 52.2928 4.2221 52.2928 3.95079C52.2928 3.63879 52.1952 3.40818 52.0001 3.25896C51.818 3.09617 51.6164 3.01478 51.3953 3.01478C51.1611 3.01478 50.9465 3.09617 50.7514 3.25896C50.5692 3.40818 50.4782 3.63879 50.4782 3.95079C50.4782 4.2221 50.5628 4.45271 50.7319 4.64262Z" fill="white" fill-opacity="0.68"/>
<path fill-rule="evenodd" clip-rule="evenodd" d="M57.9565 17.7671C58.7889 18.2554 59.7255 18.4996 60.7661 18.4996C61.7156 18.4996 62.5612 18.2893 63.3026 17.8688C64.0329 17.4413 64.6117 16.869 65.0391 16.1519V17.7671C65.0391 17.9434 65.0911 18.0927 65.1952 18.2148C65.3123 18.3233 65.4554 18.3775 65.6245 18.3775C65.8066 18.3775 65.9496 18.3233 66.0537 18.2148C66.1578 18.0927 66.2098 17.9434 66.2098 17.7671V12.8225C66.2098 11.7373 65.9691 10.7674 65.4879 9.91276C65.0196 9.04461 64.3757 8.36631 63.5563 7.87796C62.7368 7.37607 61.8067 7.12508 60.7661 7.12508C59.7255 7.12508 58.7889 7.37607 57.9565 7.87796C57.137 8.36631 56.4866 9.04461 56.0053 9.91276C55.537 10.7674 55.3029 11.7373 55.3029 12.8225C55.3029 13.8942 55.537 14.8641 56.0053 15.7323C56.4866 16.5869 57.137 17.2652 57.9565 17.7671ZM62.9514 16.77C62.3141 17.1635 61.5856 17.3601 60.7661 17.3601C59.9596 17.3601 59.2312 17.1635 58.5808 16.77C57.9304 16.3631 57.4167 15.8205 57.0394 15.1422C56.6622 14.4504 56.4736 13.6771 56.4736 12.8225C56.4736 11.9544 56.6622 11.1811 57.0394 10.5029C57.4167 9.81102 57.9304 9.26843 58.5808 8.87501C59.2312 8.46805 59.9596 8.26457 60.7661 8.26457C61.5856 8.26457 62.3141 8.46805 62.9514 8.87501C63.6018 9.26843 64.1091 9.81102 64.4733 10.5029C64.8505 11.1811 65.0391 11.9544 65.0391 12.8225C65.0391 13.6771 64.8505 14.4504 64.4733 15.1422C64.1091 15.8205 63.6018 16.3631 62.9514 16.77Z" fill="white" fill-opacity="0.68"/>
<path d="M77.9309 18.2148C78.048 18.3233 78.1906 18.3775 78.3602 18.3775C78.529 18.3775 78.6656 18.3233 78.7699 18.2148C78.887 18.0927 78.9455 17.9434 78.9455 17.7671V12.2935C78.9455 11.1675 78.7309 10.2248 78.3016 9.46511C77.8724 8.69188 77.2803 8.1086 76.5261 7.71518C75.7846 7.30822 74.9456 7.10473 74.0091 7.10473C73.1761 7.10473 72.4152 7.30141 71.7262 7.69483C71.1651 8.00382 70.6903 8.4116 70.3016 8.91816V7.85761C70.3016 7.66767 70.2495 7.5185 70.1455 7.40995C70.0414 7.30141 69.8983 7.24717 69.7163 7.24717C69.5471 7.24717 69.4041 7.30141 69.287 7.40995C69.1829 7.5185 69.1309 7.66767 69.1309 7.85761V17.7671C69.1309 17.9434 69.1829 18.0927 69.287 18.2148C69.4041 18.3233 69.5471 18.3775 69.7163 18.3775C69.8983 18.3775 70.0414 18.3233 70.1455 18.2148C70.2495 18.0927 70.3016 17.9434 70.3016 17.7671V11.5406C70.3016 10.9302 70.4641 10.3808 70.7894 9.89241C71.1146 9.40406 71.5566 9.02426 72.1165 8.75292C72.6756 8.46805 73.3067 8.32562 74.0091 8.32562C74.7243 8.32562 75.3614 8.47486 75.9212 8.77327C76.4931 9.05814 76.9418 9.49226 77.2675 10.0755C77.6052 10.6588 77.7748 11.3982 77.7748 12.2935V17.7671C77.7748 17.9434 77.8266 18.0927 77.9309 18.2148Z" fill="white" fill-opacity="0.68"/>
<path d="M83.0789 17.9502C83.4692 18.2351 83.9112 18.3775 84.4057 18.3775H84.7959C84.9776 18.3775 85.1209 18.3233 85.2252 18.2148C85.3288 18.0927 85.3813 17.9434 85.3813 17.7671C85.3813 17.5772 85.3355 17.428 85.2447 17.3194C85.1532 17.2109 85.0361 17.1567 84.8935 17.1567H84.4057C84.002 17.1567 83.6703 16.96 83.4106 16.5666C83.163 16.1596 83.0399 15.6441 83.0399 15.0201V3.09617C83.0399 2.90626 82.9874 2.75704 82.8838 2.64852C82.7795 2.53999 82.6362 2.48573 82.4546 2.48573C82.285 2.48573 82.1424 2.53999 82.0253 2.64852C81.921 2.75704 81.8692 2.90626 81.8692 3.09617V15.0201C81.8692 15.6848 81.9728 16.2682 82.1814 16.77C82.402 17.2719 82.7015 17.6654 83.0789 17.9502Z" fill="white" fill-opacity="0.68"/>
<path fill-rule="evenodd" clip-rule="evenodd" d="M88.8979 17.7671C89.7046 18.2419 90.6216 18.4793 91.649 18.4793C92.2606 18.4793 92.8977 18.3504 93.5611 18.0927C94.238 17.835 94.7843 17.5094 95.2001 17.116C95.3307 16.9939 95.3892 16.8582 95.3757 16.709C95.3757 16.5598 95.3044 16.4241 95.1611 16.302C95.0575 16.2071 94.9269 16.1664 94.7708 16.18C94.6283 16.18 94.5044 16.2342 94.4001 16.3427C94.1014 16.6411 93.6917 16.8853 93.1709 17.0753C92.6636 17.2516 92.1563 17.3398 91.649 17.3398C90.843 17.3398 90.1271 17.1498 89.5027 16.77C88.8784 16.3766 88.3906 15.8408 88.0394 15.1626C87.7376 14.5797 87.5655 13.9218 87.523 13.1888H95.7074C95.877 13.1888 96.0136 13.1413 96.1171 13.0464C96.2214 12.9378 96.2732 12.7954 96.2732 12.619C96.2732 11.5474 96.0653 10.6046 95.6489 9.79067C95.2331 8.96321 94.6538 8.31881 93.9123 7.85761C93.1709 7.3828 92.3191 7.14543 91.3563 7.14543C90.3807 7.14543 89.5162 7.38961 88.7613 7.87796C88.0071 8.36631 87.415 9.0378 86.9857 9.89241C86.5565 10.7335 86.3419 11.7102 86.3419 12.8225C86.3419 13.9213 86.57 14.898 87.0248 15.7526C87.4803 16.6073 88.1047 17.2787 88.8979 17.7671ZM87.5471 12.1307C87.6107 11.5161 87.7619 10.9599 88.0003 10.4622C88.3388 9.78386 88.7943 9.25482 89.3661 8.87501C89.9515 8.48159 90.6149 8.28492 91.3563 8.28492C92.1368 8.28492 92.8137 8.48159 93.3855 8.87501C93.9709 9.25482 94.4196 9.78386 94.7318 10.4622C94.9623 10.9629 95.1007 11.5191 95.1468 12.1307H87.5471Z" fill="white" fill-opacity="0.68"/>
<path d="M100.465 18.2758C100.57 18.3437 100.687 18.3775 100.816 18.3775C100.933 18.3775 101.038 18.3504 101.129 18.2961C101.233 18.2283 101.311 18.1266 101.363 17.9909L103.931 9.37437L106.592 17.9909C106.618 18.113 106.683 18.2079 106.787 18.2758C106.891 18.3437 107.008 18.3775 107.138 18.3775C107.281 18.3775 107.399 18.3437 107.489 18.2758C107.594 18.2079 107.665 18.113 107.704 17.9909L110.845 8.12214C110.937 7.91866 110.937 7.72198 110.845 7.53204C110.767 7.3421 110.611 7.24717 110.377 7.24717C110.117 7.24717 109.935 7.36926 109.831 7.61344L107.122 16.1252L104.563 7.73552C104.511 7.58628 104.433 7.471 104.328 7.38961C104.238 7.29468 104.121 7.24717 103.977 7.24717C103.835 7.24717 103.711 7.29468 103.607 7.38961C103.503 7.471 103.431 7.58628 103.392 7.73552L100.861 16.2759L98.1043 7.61344C98.0525 7.49135 97.9745 7.40315 97.8702 7.34891C97.7666 7.28106 97.6623 7.24717 97.558 7.24717C97.3629 7.24717 97.2263 7.32175 97.1482 7.471C97.0702 7.60663 97.0574 7.82372 97.1092 8.12214L100.27 17.9909C100.309 18.113 100.374 18.2079 100.465 18.2758Z" fill="white" fill-opacity="0.68"/>
<path d="M114.553 23.139C114.658 23.1797 114.748 23.2 114.826 23.2C115.009 23.2 115.158 23.0779 115.275 22.8338L121.831 8.0204C121.987 7.66767 121.89 7.41676 121.538 7.26752C121.213 7.13189 120.973 7.23363 120.816 7.57274L116.827 16.5861L112.875 7.55239C112.797 7.37607 112.693 7.26752 112.563 7.22682C112.433 7.18613 112.283 7.20647 112.114 7.28787C111.945 7.36926 111.841 7.47781 111.802 7.61344C111.763 7.74906 111.783 7.90512 111.861 8.08144L116.134 17.8485C116.156 17.8997 116.181 17.9452 116.208 17.985L114.261 22.3861C114.104 22.7388 114.202 22.9897 114.553 23.139Z" fill="white" fill-opacity="0.68"/>
<path d="M132.654 18.2148C132.771 18.3233 132.914 18.3775 133.083 18.3775C133.253 18.3775 133.389 18.3233 133.493 18.2148C133.61 18.0927 133.669 17.9434 133.669 17.7671V12.2935C133.669 11.1675 133.454 10.2248 133.025 9.46511C132.595 8.69188 132.004 8.1086 131.249 7.71518C130.508 7.30822 129.669 7.10473 128.732 7.10473C127.9 7.10473 127.139 7.30141 126.449 7.69483C125.889 8.00383 125.414 8.41163 125.025 8.91822V7.85761C125.025 7.66767 124.973 7.5185 124.869 7.40995C124.765 7.30141 124.622 7.24717 124.44 7.24717C124.271 7.24717 124.127 7.30141 124.01 7.40995C123.907 7.5185 123.854 7.66767 123.854 7.85761V17.7671C123.854 17.9434 123.907 18.0927 124.01 18.2148C124.127 18.3233 124.271 18.3775 124.44 18.3775C124.622 18.3775 124.765 18.3233 124.869 18.2148C124.973 18.0927 125.025 17.9434 125.025 17.7671V11.5406C125.025 10.9302 125.188 10.3808 125.513 9.89241C125.838 9.40406 126.28 9.02426 126.839 8.75292C127.399 8.46805 128.03 8.32562 128.732 8.32562C129.448 8.32562 130.085 8.47486 130.644 8.77327C131.217 9.05814 131.666 9.49226 131.991 10.0755C132.329 10.6588 132.498 11.3982 132.498 12.2935V17.7671C132.498 17.9434 132.55 18.0927 132.654 18.2148Z" fill="white" fill-opacity="0.68"/>
</svg>
