<svg width="176" height="240" viewBox="0 0 176 240" fill="none" xmlns="http://www.w3.org/2000/svg">
<path d="M96.4283 11.2723C93.6642 9.02499 89.9433 8.99907 89.9433 8.99907C89.9433 8.99907 90.5058 12.9529 93.29 15.4087C95.5117 17.3692 98.4775 17.782 99.5833 17.8687C104.825 25.5975 113.123 41.5894 111.729 63.9362C111.077 74.3809 104.862 82.3129 97.25 90.0617C96.91 88.3817 96.3683 86.4675 95.5058 84.6283C94.6223 82.7427 91.3405 80.2453 87.3875 77.2374L87.3792 77.231C80.7569 72.193 72.2535 65.7234 69.9703 58.2956C67.6941 50.8905 69.3243 42.5603 70.8717 37.3436C72.7283 37.6228 76.3184 37.8516 79.595 36.2668C84.2724 34.0038 86.54 28.9019 86.54 28.9019C86.54 28.9019 81.2235 27.4683 76.5459 29.7311C74.843 30.5547 73.4597 31.7548 72.3887 32.948C72.5863 32.4557 72.7062 32.1882 72.7062 32.1882C72.7062 32.1882 72.0426 32.9029 71.0496 34.17C71.6575 32.3097 72.1688 29.7502 71.6756 27.133C70.7236 22.0774 66.3865 18.7216 66.3865 18.7216C66.3865 18.7216 63.5919 23.5621 64.5439 28.6175C65.2866 32.5631 68.0918 35.4734 69.2877 36.561C65.8489 41.5228 61.2177 50.0598 62.447 58.7462C62.6394 60.107 62.9233 61.3965 63.2846 62.6226C62.9945 62.2774 62.6704 61.945 62.3087 61.6365C59.4928 59.2351 55.4623 59.1921 55.4623 59.1921C55.4623 59.1921 55.9957 63.0417 58.8104 65.4432C61.2566 67.5301 64.6203 67.8362 65.4606 67.8807C68.2375 73.0221 72.3485 76.9305 76.1313 80.5267L76.1324 80.5277C80.0856 84.2863 83.68 87.7036 85.0183 91.8308C85.9367 94.6667 85.9875 98.36 85.8117 101.326C80.2026 107.017 74.8907 113.167 71.319 120.584C70.0332 119.933 65.4258 117.192 57.0308 107.985C53.073 103.643 51.229 99.255 49.5572 94.8642C50.7793 94.0733 52.9964 92.3517 54.0631 89.7333C55.58 86.0083 54.1965 81.8792 54.1965 81.8792C54.1965 81.8792 50.3535 83.7883 48.836 87.5125C48.3422 88.7242 48.1558 89.9792 48.1289 91.1208C46.5797 87.1925 44.7261 83.2724 41.1757 79.3925C36.6212 74.4151 29.2538 69.491 23.5175 66.0529C24.3248 64.9392 25.3502 63.1356 25.4988 61.011C25.7486 57.435 23.422 54.3039 23.422 54.3039C23.422 54.3039 20.6902 56.9699 20.4401 60.5452C20.3338 62.0648 20.6931 63.5043 21.1413 64.6572C21.0212 64.588 20.9023 64.5197 20.7847 64.4523C19.5637 63.1375 17.8315 61.6919 15.6197 60.8777C10.857 59.1255 5.67397 60.9632 5.67397 60.9632C5.67397 60.9632 8.21266 65.6427 12.9754 67.3965C16.6732 68.7574 20.6244 67.9535 22.2064 67.526C26.6707 71.6351 32.1906 77.1729 35.4314 82.1052C39.1185 87.7166 40.3394 92.9867 41.5562 98.2392C42.454 102.115 43.3495 105.98 45.2317 109.967C45.1982 109.937 45.1803 109.92 45.1803 109.92C45.1803 109.92 36.9013 111.842 31.3867 111.017C25.3018 110.108 18.7456 105.201 14.2525 101.172C13.5212 99.3983 11.9914 96.4125 9.44083 94.6208C5.63583 91.9483 1 92.945 1 92.945C1 92.945 2.53293 98.2733 6.338 100.946C8.76322 102.649 11.5261 102.862 13.2109 102.792C15.5988 106.13 18.798 110.007 22.4755 112.952C21.9957 112.891 21.4772 112.882 20.9232 112.946C17.5192 113.34 14.0626 116.383 14.0626 116.383C14.0626 116.383 16.1246 118.784 19.5283 118.388C22.1895 118.08 24.8828 116.152 25.9315 115.327C26.9124 115.887 27.9167 116.362 28.9393 116.728C36.3717 119.392 48.9942 118.813 50.7577 118.717C57.834 128.557 64.3911 135.73 66.8686 138.343C66.8049 139.798 66.8047 141.296 66.8729 142.839C68.0978 170.532 73.6027 188.388 73.6027 188.388C73.6027 188.388 81.7997 190.083 93.0467 189.706C102.392 189.393 109.632 187.636 109.632 187.636C109.632 187.636 102.938 181.697 97.07 171.437C100.585 169.009 116.49 157.735 125.926 146.289L125.912 146.319C125.912 146.319 139.31 147.17 146.955 144.43C153.955 141.922 160.058 134.107 163.452 128.98C164.768 129.252 166.955 129.436 169.077 128.418C172.421 126.813 174.333 122.828 174.333 122.828C174.333 122.828 170.826 121.444 167.483 123.049C166.458 123.541 165.568 124.256 164.827 125.012C165.164 123.999 165.397 122.846 165.356 121.635C165.227 117.802 162.408 114.848 162.408 114.848C162.408 114.848 159.798 118.109 159.927 121.942C160.026 124.832 161.652 127.223 162.446 128.223L162.444 128.224C158.207 132.235 151.129 138.002 144.618 138.974C139.636 139.721 132.291 138.118 131.507 137.942C133.425 134.213 134.555 130.671 135.689 127.118L135.692 127.108C137.227 122.294 138.769 117.462 142.28 112.118C142.527 111.742 142.786 111.36 143.053 110.974C144.383 111.352 147.057 111.877 149.667 110.991C153.34 109.742 155.496 106.173 155.496 106.173C155.496 106.173 151.696 104.627 148.022 105.875C147.399 106.086 146.82 106.365 146.287 106.682C149.482 102.7 153.143 98.725 155.899 95.8492C157.702 95.6667 161.005 95.0475 163.59 92.9475C167.34 89.9017 168.158 84.895 168.158 84.895C168.158 84.895 164.501 84.8475 161.112 86.5967C161.743 82.4493 159.9 78.69 159.9 78.69C159.9 78.69 155.55 81.6125 154.248 86.2316C153.307 89.5708 154.217 92.8825 154.792 94.4608C149.145 97.6908 140.362 103.192 135.265 108.762C131.131 113.279 129.405 117.853 127.678 122.43C125.956 126.995 124.232 131.563 120.117 136.077C111.872 145.121 94.9217 153.003 90.3175 155.041C89.3308 151.234 88.6625 147.156 88.4717 142.839C88.0567 126.15 96.3783 114.836 104.888 103.846C115.498 92.1142 134.051 75.895 143.381 67.9208C145.261 68.4402 148.529 69.0109 151.758 67.9881C156.705 66.4214 159.688 61.7096 159.688 61.7096C159.688 61.7096 154.652 59.5374 149.705 61.1046C149.113 61.2919 148.55 61.5242 148.016 61.7882C148.311 61.223 148.57 60.6232 148.775 59.9907C150.362 55.1077 148.162 50.135 148.162 50.135C148.162 50.135 143.389 53.0802 141.802 57.9632C140.632 61.5623 141.521 65.2105 142.067 66.88C135.758 70.3252 126.517 75.4863 120.078 79.5865C121.748 74.8714 122.66 69.7349 122.403 63.9362C121.264 38.1781 108.811 23.4884 101.261 16.8909C101.714 15.5255 102.195 13.3478 101.675 11.1592C100.822 7.57149 97.6025 5.31274 97.6025 5.31274C97.6025 5.31274 96.15 8.12627 96.4283 11.2723Z" fill="#A7F1E1"/>
<path fill-rule="evenodd" clip-rule="evenodd" d="M12.1019 213.971C12.1019 213.859 12.1111 213.777 12.1297 213.721V207.508C12.1297 207.195 12.222 206.936 12.407 206.732C12.6103 206.529 12.8692 206.427 13.1835 206.427C13.4978 206.427 13.7567 206.529 13.9601 206.732C14.1633 206.936 14.2651 207.195 14.2651 207.508V215.634C14.9122 214.747 15.735 214.053 16.7333 213.554C17.7318 213.037 18.8318 212.778 20.0337 212.778C21.4388 212.778 22.7053 213.12 23.8331 213.804C24.9793 214.47 25.8761 215.394 26.5232 216.577C27.1888 217.743 27.5217 219.046 27.5217 220.488C27.5217 221.93 27.1796 223.243 26.4955 224.426C25.8299 225.61 24.9054 226.543 23.7222 227.227C22.5574 227.892 21.2539 228.225 19.8118 228.225C18.3697 228.225 17.0569 227.892 15.8737 227.227C14.7088 226.543 13.7843 225.61 13.1003 224.426C12.4348 223.243 12.1019 221.93 12.1019 220.488V213.971ZM16.9553 225.535C17.8057 226.034 18.7579 226.284 19.8118 226.284C20.8657 226.284 21.8178 226.034 22.6683 225.535C23.5373 225.017 24.2121 224.324 24.6928 223.455C25.1921 222.568 25.4417 221.579 25.4417 220.488C25.4417 219.397 25.1921 218.418 24.6928 217.548C24.2121 216.661 23.5373 215.968 22.6683 215.468C21.8178 214.969 20.8657 214.719 19.8118 214.719C18.3511 214.719 17.1031 215.182 16.0678 216.106C15.0508 217.031 14.45 218.213 14.2651 219.656C14.2651 219.712 14.2558 219.758 14.2374 219.794C14.2188 219.942 14.2097 220.174 14.2097 220.488C14.2097 221.579 14.45 222.568 14.9308 223.455C15.4299 224.324 16.1047 225.017 16.9553 225.535Z" fill="#A7F1E1"/>
<path d="M40.3908 213.055C39.9471 212.852 39.3369 212.75 38.5604 212.75C37.5989 212.75 36.7023 212.963 35.8703 213.388C35.0382 213.813 34.3541 214.414 33.818 215.191V213.971C33.818 213.638 33.7255 213.379 33.5407 213.194C33.3557 213.009 33.0969 212.917 32.7641 212.917C32.4313 212.917 32.1724 213.009 31.9876 213.194C31.8027 213.379 31.7102 213.638 31.7102 213.971V227.033C31.7102 227.366 31.8027 227.625 31.9876 227.809C32.1724 227.995 32.4313 228.087 32.7641 228.087C33.0969 228.087 33.3557 227.995 33.5407 227.809C33.7255 227.625 33.818 227.366 33.818 227.033V218.741C33.818 217.558 34.2524 216.597 35.1214 215.857C36.0089 215.117 37.146 214.747 38.5327 214.747C38.8284 214.747 39.0503 214.757 39.1982 214.775C39.605 214.812 39.8916 214.83 40.058 214.83C40.3353 214.83 40.5479 214.784 40.6958 214.692C40.8622 214.6 40.9823 214.423 41.0564 214.165C41.0748 214.109 41.0841 214.026 41.0841 213.915C41.0841 213.546 40.853 213.259 40.3908 213.055Z" fill="#A7F1E1"/>
<path d="M45.1611 213.222C44.9577 213.425 44.856 213.684 44.856 213.998V227.005C44.856 227.32 44.9577 227.579 45.1611 227.782C45.3645 227.985 45.6233 228.087 45.9376 228.087C46.2519 228.087 46.5016 227.985 46.6864 227.782C46.8898 227.579 46.9915 227.32 46.9915 227.005V213.998C46.9915 213.684 46.8898 213.425 46.6864 213.222C46.5016 213.019 46.2519 212.917 45.9376 212.917C45.6233 212.917 45.3645 213.019 45.1611 213.222Z" fill="#A7F1E1"/>
<path d="M46.9915 207.425C46.6957 207.148 46.3443 207.009 45.9376 207.009C45.5123 207.009 45.1518 207.148 44.856 207.425C44.5603 207.703 44.4122 208.063 44.4122 208.507C44.4122 208.932 44.5509 209.293 44.8282 209.588C45.1241 209.885 45.4846 210.032 45.9099 210.032C46.3352 210.032 46.6957 209.885 46.9915 209.588C47.2872 209.293 47.4353 208.932 47.4353 208.507C47.4353 208.063 47.2872 207.703 46.9915 207.425Z" fill="#A7F1E1"/>
<path fill-rule="evenodd" clip-rule="evenodd" d="M63.2449 213.804C62.0802 213.12 60.7767 212.778 59.3346 212.778C57.8924 212.778 56.5797 213.12 55.3964 213.804C54.2316 214.47 53.3072 215.394 52.6231 216.577C51.9575 217.762 51.6247 219.073 51.6247 220.516C51.6247 221.957 51.9482 223.271 52.5953 224.453C53.2609 225.618 54.1577 226.543 55.2855 227.227C56.4318 227.892 57.7076 228.225 59.1127 228.225C60.3145 228.225 61.4146 227.976 62.4129 227.477C63.4113 226.959 64.2341 226.257 64.8812 225.369V227.033C64.8812 227.347 64.9829 227.607 65.1862 227.809C65.3897 227.995 65.6485 228.087 65.9628 228.087C66.2772 228.087 66.5359 227.985 66.7393 227.782C66.9427 227.579 67.0444 227.329 67.0444 227.033V220.516C67.0444 219.073 66.7023 217.762 66.0182 216.577C65.3527 215.394 64.4283 214.47 63.2449 213.804ZM62.1911 225.535C61.3406 226.034 60.3884 226.284 59.3346 226.284C58.2807 226.284 57.3192 226.034 56.4502 225.535C55.5998 225.036 54.9249 224.353 54.4258 223.483C53.945 222.596 53.7047 221.607 53.7047 220.516C53.7047 219.425 53.945 218.445 54.4258 217.576C54.9249 216.688 55.5998 215.995 56.4502 215.496C57.3192 214.978 58.2807 214.719 59.3346 214.719C60.3884 214.719 61.3406 214.978 62.1911 215.496C63.0416 215.995 63.7072 216.688 64.1879 217.576C64.6871 218.445 64.9367 219.425 64.9367 220.516C64.9367 221.607 64.6871 222.596 64.1879 223.483C63.7072 224.353 63.0416 225.036 62.1911 225.535Z" fill="#A7F1E1"/>
<path d="M81.9028 213.583C80.8674 213.028 79.6933 212.75 78.3807 212.75C77.3637 212.75 76.4208 212.944 75.5519 213.332C74.6828 213.721 73.9433 214.257 73.3332 214.941V213.998C73.3332 213.684 73.2315 213.425 73.0282 213.222C72.8432 213.019 72.5936 212.917 72.2793 212.917C71.965 212.917 71.7062 213.019 71.5028 213.222C71.2994 213.425 71.1977 213.684 71.1977 213.998V227.033C71.1977 227.347 71.2994 227.607 71.5028 227.809C71.7062 227.995 71.965 228.087 72.2793 228.087C72.5936 228.087 72.8432 227.995 73.0282 227.809C73.2315 227.607 73.3332 227.347 73.3332 227.033V218.824C73.3332 218.067 73.5458 217.382 73.9711 216.772C74.3962 216.143 74.9695 215.653 75.6906 215.302C76.4301 214.951 77.2528 214.775 78.1588 214.775C79.6378 214.775 80.8304 215.21 81.7364 216.078C82.6608 216.929 83.1231 218.177 83.1231 219.823V227.033C83.1231 227.329 83.2248 227.579 83.4282 227.782C83.6315 227.985 83.8903 228.087 84.2047 228.087C84.5008 228.087 84.75 227.985 84.9533 227.782C85.1567 227.579 85.2583 227.329 85.2583 227.033V219.823C85.2583 218.343 84.9625 217.077 84.3708 216.022C83.7794 214.951 82.9567 214.137 81.9028 213.583Z" fill="#A7F1E1"/>
<path d="M89.7175 206.732C89.5133 206.918 89.4125 207.168 89.4125 207.481V223.289C89.4125 224.695 89.7633 225.85 90.4658 226.756C91.1875 227.643 92.1108 228.087 93.2392 228.087H93.6C93.9692 228.087 94.2658 227.995 94.4875 227.809C94.7275 227.607 94.8483 227.347 94.8483 227.033C94.8483 226.719 94.765 226.469 94.5975 226.284C94.4317 226.082 94.21 225.979 93.9325 225.979H93.2392C92.74 225.979 92.3242 225.729 91.9917 225.23C91.6767 224.731 91.52 224.084 91.52 223.289V207.481C91.52 207.168 91.4175 206.918 91.215 206.732C91.0292 206.529 90.78 206.427 90.4658 206.427C90.17 206.427 89.92 206.529 89.7175 206.732Z" fill="#A7F1E1"/>
<path fill-rule="evenodd" clip-rule="evenodd" d="M107.049 213.748C105.995 213.102 104.784 212.778 103.416 212.778C102.011 212.778 100.753 213.111 99.6442 213.777C98.5533 214.423 97.6933 215.339 97.065 216.522C96.455 217.687 96.15 219.018 96.15 220.516C96.15 221.995 96.4733 223.326 97.12 224.509C97.7858 225.674 98.7008 226.589 99.8658 227.255C101.031 227.902 102.352 228.225 103.832 228.225C104.701 228.225 105.607 228.059 106.55 227.726C107.492 227.375 108.269 226.941 108.879 226.423C109.083 226.238 109.184 226.026 109.184 225.785C109.184 225.507 109.064 225.258 108.824 225.036C108.62 224.888 108.418 224.814 108.213 224.814C107.954 224.814 107.705 224.907 107.465 225.092C107.058 225.443 106.512 225.739 105.828 225.979C105.163 226.201 104.497 226.312 103.832 226.312C102.279 226.312 100.985 225.84 99.9492 224.897C98.9133 223.954 98.3225 222.726 98.1742 221.209H109.378C109.674 221.209 109.915 221.126 110.099 220.959C110.284 220.775 110.377 220.535 110.377 220.238C110.377 218.796 110.082 217.512 109.489 216.383C108.917 215.256 108.102 214.377 107.049 213.748ZM99.9217 215.995C100.846 215.127 102.011 214.692 103.416 214.692C104.802 214.692 105.939 215.127 106.827 215.995C107.714 216.864 108.232 218.011 108.38 219.434H98.23C98.4333 218.011 98.9967 216.864 99.9217 215.995Z" fill="#A7F1E1"/>
<path d="M130.753 213.166C130.587 213 130.356 212.917 130.06 212.917C129.561 212.917 129.219 213.185 129.033 213.721L125.512 224.482L122.322 213.748C122.248 213.49 122.119 213.287 121.934 213.138C121.768 212.991 121.546 212.917 121.268 212.917C120.991 212.917 120.76 212.991 120.575 213.138C120.408 213.287 120.289 213.49 120.214 213.748L116.942 224.537L113.392 213.721C113.207 213.185 112.857 212.917 112.338 212.917C111.747 212.917 111.451 213.222 111.451 213.832C111.451 213.998 111.478 214.192 111.534 214.414L115.86 227.393C115.953 227.597 116.083 227.763 116.248 227.893C116.434 228.023 116.647 228.087 116.887 228.087C117.108 228.087 117.312 228.032 117.497 227.92C117.682 227.791 117.811 227.615 117.885 227.393L121.213 216.356L124.541 227.393C124.597 227.597 124.717 227.763 124.902 227.893C125.105 228.023 125.327 228.087 125.567 228.087C125.807 228.087 126.011 228.023 126.177 227.893C126.363 227.763 126.492 227.597 126.565 227.393L130.892 214.414C130.967 214.247 131.003 214.053 131.003 213.832C131.003 213.554 130.919 213.332 130.753 213.166Z" fill="#A7F1E1"/>
<path d="M146.485 213.804C146.485 213.435 146.272 213.166 145.847 213C145.681 212.926 145.514 212.889 145.347 212.889C144.977 212.889 144.7 213.093 144.516 213.499L139.358 224.87L133.949 213.472C133.783 213.083 133.506 212.889 133.118 212.889C132.932 212.889 132.766 212.926 132.618 213C132.211 213.166 132.008 213.443 132.008 213.832C132.008 214.017 132.044 214.183 132.119 214.331L138.303 227.144V227.172L135.557 233.245C135.483 233.412 135.447 233.578 135.447 233.744C135.447 234.133 135.659 234.41 136.085 234.577C136.233 234.651 136.398 234.688 136.584 234.688C136.953 234.688 137.222 234.475 137.388 234.049L146.374 214.303C146.448 214.137 146.485 213.971 146.485 213.804Z" fill="#A7F1E1"/>
<path d="M159.876 213.583C158.84 213.028 157.667 212.75 156.353 212.75C155.337 212.75 154.394 212.944 153.525 213.332C152.656 213.721 151.916 214.257 151.306 214.941V213.998C151.306 213.684 151.205 213.425 151.001 213.222C150.817 213.019 150.567 212.917 150.252 212.917C149.937 212.917 149.679 213.019 149.476 213.222C149.272 213.425 149.171 213.684 149.171 213.998V227.033C149.171 227.347 149.272 227.607 149.476 227.809C149.679 227.995 149.937 228.087 150.252 228.087C150.567 228.087 150.817 227.995 151.001 227.809C151.205 227.607 151.306 227.347 151.306 227.033V218.824C151.306 218.067 151.518 217.382 151.944 216.772C152.369 216.143 152.942 215.653 153.663 215.302C154.402 214.951 155.226 214.775 156.132 214.775C157.611 214.775 158.803 215.21 159.709 216.078C160.634 216.929 161.096 218.177 161.096 219.823V227.033C161.096 227.329 161.197 227.579 161.401 227.782C161.605 227.985 161.863 228.087 162.177 228.087C162.473 228.087 162.722 227.985 162.927 227.782C163.13 227.579 163.232 227.329 163.232 227.033V219.823C163.232 218.343 162.936 217.077 162.344 216.022C161.752 214.951 160.929 214.137 159.876 213.583Z" fill="#A7F1E1"/>
</svg>
